# Blender v2.79 (sub 0) OBJ File: ''
# www.blender.org
mtllib ShipBlock.mtl
o ShipBlock
v 0.467372 -0.064673 -0.000000
v 0.446536 -0.150244 -0.000000
v 0.291720 -0.364508 -0.000000
v -0.287080 -0.373615 -0.000000
v -0.806483 -0.186067 -0.000000
v -0.641246 0.230492 0.000000
v 0.000334 0.480360 0.000000
v 0.412159 0.291796 0.000000
vt 0.000000 0.000000
vt 1.000000 0.000000
vt 1.000000 0.500000
vt 1.000000 1.000000
vt 0.000000 1.000000
vt 0.000000 0.875000
vt 0.000000 0.750000
vt 0.000000 0.500000
vn -0.0000 0.0000 -1.0000
usemtl None
s 1
f 1/1/1 2/2/1 3/3/1 4/4/1 5/5/1 6/6/1 7/7/1 8/8/1
