# Blender v2.79 (sub 0) OBJ File: ''
# www.blender.org
v 0.607072 -0.060144 -0.000000
v 0.319608 -0.226966 -0.000000
v 0.077437 -0.456235 -0.000000
v -0.170143 -0.325441 -0.000000
v -0.513596 -0.379890 -0.000000
v -0.422625 -0.084397 -0.000000
v -0.549118 0.093948 0.000000
v -0.278964 0.165501 0.000000
v -0.122815 0.419206 0.000000
v 0.159364 0.308609 0.000000
v 0.441543 0.380162 0.000000
v 0.452238 0.165649 0.000000
vt 1.000000 0.500000
vt 0.000000 1.000000
vt 0.000000 0.843750
vt 0.000000 0.500000
vt 0.000000 0.000000
vt 1.000000 0.000000
vt 1.000000 0.250000
vt 1.000000 1.000000
vt 0.000000 0.875000
vt 0.000000 0.812500
vt 0.000000 0.781250
vt 0.000000 0.750000
vn 0.0000 0.0000 -1.0000
s 1
f 4/1/1 6/2/1 8/3/1
f 12/4/1 1/5/1 2/6/1
f 2/6/1 3/7/1 4/1/1
f 4/1/1 5/8/1 6/2/1
f 6/2/1 7/9/1 8/3/1
f 8/3/1 9/10/1 10/11/1
f 10/11/1 11/12/1 12/4/1
f 12/4/1 2/6/1 10/11/1
f 2/6/1 4/1/1 8/3/1
f 10/11/1 2/6/1 8/3/1
